# xmcd CD database file
#
# Track frame offsets:
#	150
#	14574
#	33533
#	52407
#	76935
#	93100
#	100515
#	119279
#	142475
#	164481
#	179884
#	194111
#
# Disc length: 2902 seconds
#
# Revision: 0
# Processed by: cddbd v1.5.2PL0 Copyright (c) Steve Scherf et al.
# Submitted via: CDex 1.70beta2
#
DISCID=b40b540c
DTITLE=Dominic Miller - Fourth Wall
DYEAR=2006
DGENRE=Jazz
TTITLE0=Iguazu
TTITLE1=One more second
TTITLE2=London Paris Cardiff
TTITLE3=Meeting Point
TTITLE4=Lyre's String
TTITLE5=The Bridge
TTITLE6=Lost and Found
TTITLE7=Gabe
TTITLE8=Three Souls
TTITLE9=Count It Off
TTITLE10=Rise and Fall
TTITLE11=La Belle Dame Sans Regrets
EXTD=YEAR: 2006
EXTT0=
EXTT1=
EXTT2=
EXTT3=
EXTT4=
EXTT5=
EXTT6=
EXTT7=
EXTT8=
EXTT9=
EXTT10=
EXTT11=
PLAYORDER=
